<svg id="Flat" height="512" viewBox="0 0 512 512" width="512" xmlns="http://www.w3.org/2000/svg"><path d="m168 224v120l-17.97-.87-25.71-1.25-44.32-8.06-18.86-3.43a16 16 0 0 1 -13.14-15.74v-290.65h40v200z" fill="#ed5749"/><path d="m80 296v37.82l-18.86-3.43a16 16 0 0 1 -13.14-15.74v-34.65h16a16 16 0 0 1 16 16z" fill="#4e4e4f"/><path d="m168 224v120l-17.97-.87-3.23-29.03a29.012 29.012 0 0 0 -15.86-22.74l-66.94-33.47v-17.89a190.951 190.951 0 0 1 24-93.13v77.13z" fill="#e5493d"/><path d="m48 216h40v32h-40z" fill="#4e4e4f"/><path d="m88 216v32h-24v-8a194.892 194.892 0 0 1 1.48-24z" fill="#333"/><path d="m48 24h40v32h-40z" fill="#4e4e4f"/><path d="m401.21 263.4-3.37 19.57-29.84 173.03v40h-224v-40l-19.68-114.12-10.16-58.91-3.37-19.57z" fill="#4e4e4f"/><path d="m401.21 263.4-3.37 19.57-16.78 8.39a28.956 28.956 0 0 0 -15.86 22.74l-7.08 63.67-6.12 55.12v15.11a32.03 32.03 0 0 1 -32 32h-128a32.03 32.03 0 0 1 -32-32v-15.11l-13.2-118.79a28.9 28.9 0 0 0 -15.86-22.74l-16.78-8.39-3.37-19.57z" fill="#333"/><path d="m432 241.57v6.43l-58.1 29.05a45.006 45.006 0 0 0 -24.6 35.28l-7.08 63.67-5.33 48-.89 8v16a16 16 0 0 1 -16 16h-128a16 16 0 0 1 -16-16v-16l-.89-8-12.41-111.67a45.005 45.005 0 0 0 -24.6-35.28l-2.1-1.05-56-28v-8a175.994 175.994 0 0 1 174.65-175.99c97.54-.74 177.35 80.02 177.35 177.56z" fill="#e4e4e3"/><path d="m374.761 209.081-10.111 74.129a44.989 44.989 0 0 0 -15.35 29.12l-7.08 63.67h-78.22a8 8 0 0 1 -8-8v-160a8 8 0 0 1 8-8h102.835a8 8 0 0 1 7.926 9.081z" fill="#4e4e4f"/><path d="m304 70.79v129.21h-16v-133.02z" fill="#b3b1b3"/><path d="m336.89 424-.89 8v8h-32a8 8 0 0 1 -8-8v-16h-80v16a8 8 0 0 1 -8 8h-32v-8l-.89-8h24.89v-16a8 8 0 0 1 8-8h96a8 8 0 0 1 8 8v16z" fill="#b3b1b3"/><g fill="#ed5749"><path d="m211.44 146.04a104.627 104.627 0 0 0 -59.44 93.96v47.85a44.89 44.89 0 0 0 -13.9-10.8l-2.1-1.05v-36a120.147 120.147 0 0 1 68.56-108.41z"/><path d="m225.78 107.38a136.257 136.257 0 0 0 -105.78 132.62v28l-16-8v-20a152.264 152.264 0 0 1 118.22-148.22z"/><path d="m240.882 104.834-1.764-15.9a153.459 153.459 0 0 1 16.882-.934v16a137.73 137.73 0 0 0 -15.118.834z"/></g><circle cx="312" cy="256" fill="#0093b9" r="32"/><circle cx="312" cy="256" fill="#2da4c4" r="20.817"/><ellipse cx="299.052" cy="243.052" fill="#8acadb" rx="9.387" ry="5.976" transform="matrix(.707 -.707 .707 .707 -84.274 282.65)"/><circle cx="312" cy="256" fill="#5db9d2" r="8"/><circle cx="304" cy="328" fill="#0093b9" r="24"/><circle cx="304" cy="328" fill="#2da4c4" r="16"/><circle cx="304" cy="328" fill="#5db9d2" r="8"/><ellipse cx="292.919" cy="316.919" fill="#8acadb" rx="5.867" ry="3.735" transform="matrix(.707 -.707 .707 .707 -138.302 299.948)"/></svg>