<svg height="512" viewBox="0 0 512 512" width="512" xmlns="http://www.w3.org/2000/svg"><g id="Flat"><path d="m200 56h272v408h-272z" fill="#ef5249"/><path d="m240 24h48v32h-48z" fill="#ef5249"/><g fill="#be382d"><path d="m176 48h320v16h-320z"/><path d="m176 80h320v16h-320z"/><path d="m416 456h80v16h-80z"/><path d="m416 424h80v16h-80z"/><path d="m416 264h80v16h-80z"/><path d="m416 232h80v16h-80z"/></g><path d="m272 472v-208l104-17.333 8-54.667h32v280a16 16 0 0 1 -16 16h-112a16 16 0 0 1 -16-16z" fill="#ffc119"/><path d="m416 224h-36.683l4.683-32h32z" fill="#faac2b"/><path d="m272 312h96v128h-96z" fill="#faac2b"/><path d="m328 400h16v16h-16z" fill="#ffc119"/><rect fill="#0093ba" height="320" rx="24" width="192" x="104" y="168"/><path d="m176 192h16v16h-16z" fill="#7ecce6"/><path d="m208 192h16v16h-16z" fill="#7ecce6"/><path d="m192 448h16v16h-16z" fill="#7ecce6"/><path d="m256 416v-152h-16v152h-16v-80h-16v80h-16v-104h-16v104h-16v-24h-16v24h-16v16h144v-16z" fill="#ffc119"/><path d="m24 384 24-24v-72a24 24 0 0 1 24-24h32v32l20-20a16.971 16.971 0 0 1 24 0 16.971 16.971 0 0 1 0 24l-36 36a45.255 45.255 0 0 1 0 64l-40 40z" fill="#f5be9a"/><rect fill="#ec917f" height="16" rx="8" transform="matrix(.707 -.707 .707 .707 -186.843 156.922)" width="22.627" x="84.686" y="296"/></g></svg>