<svg id="Flat" height="512" viewBox="0 0 512 512" width="512" xmlns="http://www.w3.org/2000/svg"><circle cx="88" cy="168" fill="#676767" r="72"/><path d="m24 232v-24c0-17.673 21.49-32 48-32s48 14.327 48 32v24z" fill="#4e4e4f"/><path d="m24 232c0 11.84 9.66 22.19 24 27.72a63.739 63.739 0 0 0 16 3.83 71.336 71.336 0 0 0 16 0 63.739 63.739 0 0 0 16-3.83c14.34-5.53 24-15.88 24-27.72s-9.66-22.19-24-27.72a63.739 63.739 0 0 0 -16-3.83 71.336 71.336 0 0 0 -16 0 63.739 63.739 0 0 0 -16 3.83c-14.34 5.53-24 15.88-24 27.72z" fill="#969595"/><path d="m48 204.28v55.44a63.739 63.739 0 0 0 16 3.83v-63.1a63.739 63.739 0 0 0 -16 3.83z" fill="#808080"/><path d="m80 200.45v63.1a63.739 63.739 0 0 0 16-3.83v-55.44a63.739 63.739 0 0 0 -16-3.83z" fill="#808080"/><circle cx="424" cy="168" fill="#676767" r="72"/><path d="m488 232v-24c0-17.673-21.49-32-48-32s-48 14.327-48 32v24z" fill="#4e4e4f"/><path d="m488 232c0 11.84-9.66 22.19-24 27.72a63.739 63.739 0 0 1 -16 3.83 71.336 71.336 0 0 1 -16 0 63.739 63.739 0 0 1 -16-3.83c-14.34-5.53-24-15.88-24-27.72s9.66-22.19 24-27.72a63.739 63.739 0 0 1 16-3.83 71.336 71.336 0 0 1 16 0 63.739 63.739 0 0 1 16 3.83c14.34 5.53 24 15.88 24 27.72z" fill="#969595"/><path d="m464 204.28v55.44a63.739 63.739 0 0 1 -16 3.83v-63.1a63.739 63.739 0 0 1 16 3.83z" fill="#808080"/><path d="m432 200.45v63.1a63.739 63.739 0 0 1 -16-3.83v-55.44a63.739 63.739 0 0 1 16-3.83z" fill="#808080"/><path d="m152 120v-57.875a16 16 0 0 1 14.015-15.877l32-4a16 16 0 0 1 17.985 15.877v29.875z" fill="#969595"/><path d="m360 120v-57.875a16 16 0 0 0 -14.015-15.877l-32-4a16 16 0 0 0 -17.985 15.877v29.875z" fill="#969595"/><path d="m358.91 427.63-14.71 28.42a16 16 0 0 1 -21.57 6.85l-7.11-3.68-25.14-13.01h-68.76l-25.14 13.01-7.11 3.68a16 16 0 0 1 -21.57-6.85l-14.71-28.42a16 16 0 0 1 6.86-21.56l7.12-3.68 22.26-11.53h133.34l22.26 11.53 7.12 3.68a16 16 0 0 1 6.86 21.56z" fill="#969595"/><path d="m120.003 314.12h272v16h-272z" fill="#676767"/><path d="m120.003 282.12h272v16h-272z" fill="#676767"/><path d="m344 256 24 16v80h-208a16 16 0 0 1 -16-16v-64l24-16z" fill="#969595"/><path d="m336 308.703v59.297l-56 96h-48l-56-96v-59.297z" fill="#808080"/><path d="m336.26 235.87 23.74-11.87 32-112-56-24h-160l-56 24 32 112 23.74 11.87z" fill="#808080"/><circle cx="256" cy="272" fill="#676767" r="88"/><path d="m256 336a64 64 0 1 1 64-64 64.072 64.072 0 0 1 -64 64zm0-112a48 48 0 1 0 48 48 48.054 48.054 0 0 0 -48-48z" fill="#4e4e4f"/><path d="m192 72h128a16 16 0 0 1 16 16v56a0 0 0 0 1 0 0h-160a0 0 0 0 1 0 0v-56a16 16 0 0 1 16-16z" fill="#676767"/><g fill="#4e4e4f"><path d="m200 72h16v48h-16z"/><path d="m232 72h16v48h-16z"/><path d="m264 72h16v48h-16z"/><path d="m296 72h16v48h-16z"/><path d="m224 384h64v16h-64z"/><path d="m240 416h32v16h-32z"/><path d="m328 176h16v16h-16z"/><path d="m168 176h16v16h-16z"/></g><path d="m196.48 459.22-7.11 3.68a16 16 0 0 1 -21.57-6.85l-14.71-28.42a16 16 0 0 1 6.86-21.56l7.12-3.68z" fill="#676767"/><path d="m358.91 427.63-14.71 28.42a16 16 0 0 1 -21.57 6.85l-7.11-3.68 29.41-56.83 7.12 3.68a16 16 0 0 1 6.86 21.56z" fill="#676767"/></svg>