<svg height="512" viewBox="0 0 512 512" width="512" xmlns="http://www.w3.org/2000/svg"><g id="Flat"><path d="m272 376v64l144 16v32l-160-16-160 16v-32l144-16v-64z" fill="#4e4e4f"/><rect fill="#4e4e4f" height="304" rx="16" width="464" x="24" y="96"/><path d="m40 112h432v272h-432z" fill="#686869"/><g fill="#eb5849"><path d="m80 336h32v32h-32z"/><path d="m144 336h32v32h-32z"/><path d="m208 336h32v32h-32z"/><path d="m272 336h32v32h-32z"/><path d="m336 336h32v32h-32z"/><path d="m400 336h32v32h-32z"/><path d="m80 152h96v144h-96z"/></g><path d="m136 216h16v16h-16z" fill="#d4342f"/><path d="m216 192h16v16h-16z" fill="#e3e4e2"/><path d="m200 224h88v16h-88z" fill="#e3e4e2"/><path d="m200 256h88v16h-88z" fill="#e3e4e2"/><path d="m200 288h72v16h-72z" fill="#e3e4e2"/><path d="m248 192h40v16h-40z" fill="#e3e4e2"/><path d="m104 216h16v16h-16z" fill="#d4342f"/><rect fill="#0093b9" height="272" rx="24" width="176" x="312" y="24"/><rect fill="#2ba3c4" height="240" rx="8" width="144" x="328" y="40"/><path d="m392 176h16v16h-16z" fill="#57c3c1"/><path d="m376.3 180.175-15.8-2.524a40.006 40.006 0 0 1 79 0l-15.8 2.524a24.006 24.006 0 0 0 -47.4 0z" fill="#57c3c1"/><path d="m449.473 157.734a56.025 56.025 0 0 0 -98.946 0l-14.127-7.517a72.024 72.024 0 0 1 127.194 0z" fill="#57c3c1"/><path d="m392 256h16v16h-16z" fill="#5db9d2"/><path d="m408 48h16v16h-16z" fill="#5db9d2"/><path d="m376 48h16v16h-16z" fill="#5db9d2"/><path d="m240 400h32v16h-32z" fill="#343433"/></g></svg>