<svg id="Flat" height="512" viewBox="0 0 512 512" width="512" xmlns="http://www.w3.org/2000/svg"><circle cx="256" cy="256" fill="#4e4e4f" r="240"/><circle cx="256" cy="256" fill="#676767" r="178.065"/><circle cx="256" cy="256" fill="#808080" r="116.129"/><circle cx="256" cy="256" fill="#fbbe1f" r="54.194"/><circle cx="372.129" cy="256" fill="#0093b9" r="30.968"/><circle cx="319.813" cy="89.762" fill="#ed5749" r="30.968"/><circle cx="143.94" cy="394.382" fill="#cacac9" r="30.968"/><circle cx="403.759" cy="445.123" fill="#85bb40" r="30.968"/><circle cx="86.294" cy="86.294" fill="#f79726" r="30.968"/><circle cx="146.198" cy="218.192" fill="#eaae48" r="30.968"/><g fill="#f3f2f2"><path d="m48.47 309.473h15.483v16h-15.483z" transform="matrix(.956 -.294 .294 .956 -90.871 30.566)"/><path d="m276.844 391.523h15.484v16h-15.484z" transform="matrix(.969 -.246 .246 .969 -89.587 82.345)"/><path d="m219.672 166.412h15.484v16h-15.484z" transform="matrix(.969 -.246 .246 .969 -35.935 61.345)"/><path d="m448.047 186.526h15.483v16h-15.483z" transform="matrix(.956 -.294 .294 .956 -37.051 142.63)"/></g></svg>